<?xml version="1.0" standalone="no"?>
<!DOCTYPE svg PUBLIC "-//W3C//DTD SVG 20010904//EN"
 "http://www.w3.org/TR/2001/REC-SVG-20010904/DTD/svg10.dtd">
<svg version="1.0" xmlns="http://www.w3.org/2000/svg"
 width="700.000000pt" height="700.000000pt" viewBox="0 0 700.000000 700.000000"
 preserveAspectRatio="xMidYMid meet">
<metadata>
Created by potrace 1.11, written by Peter Selinger 2001-2013
</metadata>
<g transform="translate(0.000000,700.000000) scale(0.100000,-0.100000)"
fill="#000000" stroke="none">
<path d="M5045 6975 c-470 -87 -872 -372 -1092 -775 -30 -55 -179 -317 -249
-438 -12 -21 -32 -56 -45 -78 -13 -23 -39 -68 -58 -100 -62 -106 -247 -428
-273 -474 -14 -25 -65 -112 -113 -195 -48 -82 -95 -163 -105 -180 -9 -16 -59
-103 -111 -192 -52 -90 -98 -171 -104 -181 -5 -9 -31 -53 -56 -97 -26 -44 -56
-96 -66 -115 -11 -19 -52 -89 -90 -155 -39 -66 -81 -140 -95 -165 -14 -25 -49
-85 -78 -135 -29 -49 -61 -105 -72 -123 -10 -18 -53 -93 -95 -165 -88 -152
-111 -192 -218 -377 -116 -201 -220 -380 -244 -420 -11 -19 -26 -46 -33 -60
-21 -40 -141 -220 -191 -283 l-45 -58 -39 63 c-174 279 -254 566 -248 883 5
228 39 389 128 595 59 137 106 218 194 335 73 97 183 207 285 287 l77 61 -52
66 c-28 36 -56 71 -62 77 -5 6 -53 66 -105 132 -52 67 -99 121 -103 122 -14 0
-128 -80 -207 -146 -385 -320 -631 -784 -697 -1316 -16 -125 -9 -498 11 -594
2 -12 7 -39 10 -60 10 -63 53 -225 82 -310 102 -298 271 -575 481 -789 74 -76
196 -184 234 -208 16 -11 29 -23 29 -28 0 -23 -538 -359 -574 -359 -7 0 -16
-4 -22 -9 -12 -11 -140 -58 -179 -65 -16 -4 -41 -9 -55 -11 -52 -11 -136 -7
-173 9 -104 45 -161 141 -161 271 0 89 25 159 79 224 42 49 136 91 205 91 61
0 142 -32 175 -70 11 -12 32 -28 47 -36 26 -13 28 -13 44 11 15 23 14 27 -8
71 -66 133 -215 225 -353 218 -315 -14 -537 -173 -626 -449 -18 -57 -23 -98
-25 -215 -3 -130 0 -154 22 -235 102 -360 341 -580 774 -713 109 -34 188 -52
345 -77 50 -7 106 -17 125 -20 71 -13 567 -17 667 -6 304 36 628 122 868 232
28 12 52 23 55 23 3 1 56 27 117 59 171 87 350 200 480 305 l43 34 116 -86
c373 -277 800 -460 1260 -541 153 -27 201 -30 494 -30 273 0 337 3 460 25 30
5 73 12 95 15 82 13 100 17 222 51 452 124 711 345 819 700 34 109 42 287 19
397 -52 244 -248 446 -490 507 -78 19 -204 21 -260 5 -102 -31 -198 -114 -245
-211 -21 -43 -22 -46 -4 -65 21 -24 46 -18 84 21 64 65 169 91 260 64 83 -24
169 -118 196 -213 12 -43 12 -126 0 -172 -57 -213 -227 -259 -521 -140 -155
63 -317 156 -555 320 -262 180 -455 301 -481 301 -14 0 -12 3 52 71 251 266
449 592 560 919 32 96 76 271 85 340 3 25 8 47 9 50 7 12 19 203 19 300 -2
502 -196 920 -561 1213 l-82 66 35 11 c55 19 212 91 294 137 349 193 625 502
764 854 96 245 112 548 39 774 -68 214 -232 408 -428 508 -99 50 -202 89 -270
101 -17 3 -55 10 -85 16 -85 17 -276 19 -355 5z m290 -554 c53 -23 126 -94
154 -150 54 -105 65 -262 29 -400 -59 -229 -265 -527 -463 -671 -189 -138
-461 -223 -786 -245 -169 -12 -259 -12 -259 -2 0 6 38 74 84 151 46 78 130
220 186 316 57 96 155 263 218 370 63 107 139 233 170 279 131 195 308 340
456 371 59 13 160 4 211 -19z m-1440 -1977 c128 -20 296 -78 425 -146 52 -28
97 -54 100 -58 3 -3 25 -20 50 -37 71 -50 174 -153 241 -243 72 -97 158 -296
183 -425 29 -150 34 -256 22 -415 -6 -81 -9 -103 -21 -160 -3 -14 -7 -34 -9
-45 -25 -134 -125 -390 -199 -510 -157 -257 -307 -420 -532 -580 -54 -39 -81
-50 -153 -66 -165 -36 -279 -82 -392 -159 -53 -36 -145 -66 -155 -50 -9 14
-152 108 -176 115 -13 4 -28 11 -34 15 -31 23 -236 81 -335 95 -113 16 -270
16 -360 1 -119 -20 -122 -20 -195 -41 -105 -30 -113 -30 -176 1 -33 15 -59 31
-59 35 0 5 67 95 110 146 41 49 164 236 240 364 50 85 95 161 100 169 5 8 31
53 58 100 112 195 147 256 157 272 5 9 20 34 31 55 18 31 259 449 338 584 12
20 58 101 104 180 46 79 87 151 92 159 5 8 91 157 191 330 100 173 184 319
186 323 5 8 89 3 168 -9z"/>
</g>
</svg>
